<!DOCTYPE svg PUBLIC "-//W3C//DTD SVG 1.1//EN" "http://www.w3.org/Graphics/SVG/1.1/DTD/svg11.dtd">
<!-- Uploaded to: SVG Repo, www.svgrepo.com, Transformed by: SVG Repo Mixer Tools -->
<svg version="1.1" id="Layer_1" xmlns="http://www.w3.org/2000/svg" xmlns:xlink="http://www.w3.org/1999/xlink" viewBox="0 0 512 512" xml:space="preserve" width="800px" height="800px" fill="#000000" data-darkreader-inline-fill="" style="--darkreader-inline-fill:#181a1b; --darkreader-inline-stroke:#181a1b;" stroke="#000000" data-darkreader-inline-stroke="">
<g id="SVGRepo_bgCarrier" stroke-width="0"/>
<g id="SVGRepo_tracerCarrier" stroke-linecap="round" stroke-linejoin="round"/>
<g id="SVGRepo_iconCarrier"> <rect x="249.405" y="42.25" style="fill: rgb(247, 178, 57); --darkreader-inline-fill:#d19f47;" width="252.602" height="274.792" data-darkreader-inline-fill=""/> <rect x="249.405" y="8.592" style="fill: rgb(43, 165, 247); --darkreader-inline-fill:#4294cb;" width="252.602" height="42.622" data-darkreader-inline-fill=""/> <rect x="9.99" y="355.427" style="fill: rgb(230, 230, 230); --darkreader-inline-fill:#cac7c3;" width="492.017" height="137.989" data-darkreader-inline-fill=""/> <path style="fill: rgb(153, 153, 153); --darkreader-inline-fill:#948e85;" d="M502.01,345.44H9.99c-5.517,0-9.99,4.473-9.99,9.99v137.989c0,5.517,4.473,9.99,9.99,9.99H502.01 c5.517,0,9.99-4.473,9.99-9.99V355.43C512,349.913,507.527,345.44,502.01,345.44z M492.021,394.766H450.07v-29.346h41.951V394.766z M492.021,408.085v32.678h-18.952v-32.678H492.021z M436.751,483.429H387.6v-29.346h49.151V483.429z M75.249,365.419H124.4v29.347 H75.249V365.419z M387.6,394.766v-29.346h49.151v29.346H387.6z M413.752,408.085v32.678h-49.151v-32.678H413.752z M374.281,394.766 h-49.151v-29.346h49.151V394.766z M351.282,408.085v32.678h-49.151v-32.678H351.282z M311.81,394.766h-49.15v-29.346h49.15V394.766z M288.812,408.085v32.678H239.66v-32.678H288.812z M249.341,394.766H200.19v-29.346h49.151V394.766z M226.342,408.085v32.678 h-49.151v-32.678H226.342z M186.871,394.766h-49.151v-29.346h49.151V394.766z M163.872,408.085v32.678h-49.151v-32.678H163.872z M101.402,408.085v32.678H52.25v-32.678H101.402z M124.4,454.082v29.346H75.249v-29.346H124.4z M137.719,454.082h49.151v29.346 h-49.151V454.082z M200.19,454.082h111.62v29.346H200.19V454.082z M325.129,454.082h49.151v29.346h-49.151V454.082z M427.072,440.763v-32.678h32.676v32.678H427.072z M61.93,365.419v29.347H19.979v-29.347H61.93z M38.931,408.085v32.678H19.979 v-32.678H38.931z M19.979,454.082H61.93v29.346H19.979V454.082z M450.07,483.429v-29.346h41.951v29.346H450.07z" data-darkreader-inline-fill=""/> <rect x="9.99" y="8.594" style="fill: rgb(33, 151, 216); --darkreader-inline-fill:#3d88b1;" width="193.677" height="308.45" data-darkreader-inline-fill=""/> <g> <rect x="44.22" y="50.8" style="fill: rgb(247, 178, 57); --darkreader-inline-fill:#d19f47;" width="125.202" height="15.983" data-darkreader-inline-fill=""/> <rect x="44.22" y="92.41" style="fill: rgb(247, 178, 57); --darkreader-inline-fill:#d19f47;" width="70.659" height="15.983" data-darkreader-inline-fill=""/> <rect x="44.22" y="134.019" style="fill: rgb(247, 178, 57); --darkreader-inline-fill:#d19f47;" width="125.202" height="15.983" data-darkreader-inline-fill=""/> <rect x="44.22" y="175.629" style="fill: rgb(247, 178, 57); --darkreader-inline-fill:#d19f47;" width="70.659" height="15.983" data-darkreader-inline-fill=""/> <rect x="44.22" y="217.239" style="fill: rgb(247, 178, 57); --darkreader-inline-fill:#d19f47;" width="125.202" height="15.983" data-darkreader-inline-fill=""/> <rect x="44.22" y="258.848" style="fill: rgb(247, 178, 57); --darkreader-inline-fill:#d19f47;" width="70.659" height="15.983" data-darkreader-inline-fill=""/> </g> <g> <polygon style="fill: rgb(33, 151, 216); --darkreader-inline-fill:#3d88b1;" points="328.089,228.44 279.115,179.466 328.089,130.491 338.45,140.852 299.835,179.466 338.45,218.08 " data-darkreader-inline-fill=""/> <polygon style="fill: rgb(33, 151, 216); --darkreader-inline-fill:#3d88b1;" points="423.326,228.44 412.967,218.08 451.581,179.466 412.967,140.852 423.326,130.491 472.302,179.466 " data-darkreader-inline-fill=""/> <rect x="368.382" y="123.401" transform="matrix(-0.9699 -0.2436 0.2436 -0.9699 696.379 445.0679)" style="fill: rgb(33, 151, 216); --darkreader-inline-fill:#3d88b1;" width="14.652" height="112.152" data-darkreader-inline-fill=""/> </g> </g>
</svg>